<?xml version="1.0" encoding="UTF-8" standalone="no"?>
<!-- Created with Inkscape (http://www.inkscape.org/) -->

<svg
   xmlns:dc="http://purl.org/dc/elements/1.1/"
   xmlns:cc="http://creativecommons.org/ns#"
   xmlns:rdf="http://www.w3.org/1999/02/22-rdf-syntax-ns#"
   xmlns:svg="http://www.w3.org/2000/svg"
   xmlns="http://www.w3.org/2000/svg"
   xmlns:sodipodi="http://sodipodi.sourceforge.net/DTD/sodipodi-0.dtd"
   xmlns:inkscape="http://www.inkscape.org/namespaces/inkscape"
   width="141.11113mm"
   height="141.11113mm"
   viewBox="0 0 141.11113 141.11113"
   version="1.1"
   id="svg900"
   inkscape:version="0.92.4 (unknown)"
   sodipodi:docname="SwitchBox2019.svg">
  <defs
     id="defs894" />
  <sodipodi:namedview
     id="base"
     pagecolor="#ffffff"
     bordercolor="#666666"
     borderopacity="1.0"
     inkscape:pageopacity="0.0"
     inkscape:pageshadow="2"
     inkscape:zoom="0.7"
     inkscape:cx="267.70721"
     inkscape:cy="84.938277"
     inkscape:document-units="mm"
     inkscape:current-layer="layer1"
     showgrid="false"
     fit-margin-top="0"
     fit-margin-left="0"
     fit-margin-right="0"
     fit-margin-bottom="0"
     inkscape:window-width="1855"
     inkscape:window-height="1056"
     inkscape:window-x="65"
     inkscape:window-y="24"
     inkscape:window-maximized="1" />
  <metadata
     id="metadata897">
    <rdf:RDF>
      <cc:Work
         rdf:about="">
        <dc:format>image/svg+xml</dc:format>
        <dc:type
           rdf:resource="http://purl.org/dc/dcmitype/StillImage" />
        <dc:title></dc:title>
      </cc:Work>
    </rdf:RDF>
  </metadata>
  <g
     inkscape:label="Layer 1"
     inkscape:groupmode="layer"
     id="layer1"
     transform="translate(112.8889,10.168659)">
    <g
       transform="matrix(0.28222223,0,0,0.28222223,-989.32893,-341.89295)"
       id="g1550"
       inkscape:export-xdpi="500"
       inkscape:export-ydpi="500">
      <rect
         ry="59.999996"
         rx="59.999996"
         y="1175.401"
         x="3105.4961"
         height="500.00003"
         width="500.00003"
         id="rect5598"
         style="fill:#40d951;fill-opacity:1;stroke:#000000;stroke-width:0;stroke-miterlimit:4;stroke-dasharray:none;stroke-opacity:1" />
      <g
         transform="matrix(1.1848712,0,0,1.1848712,1411.8936,-1966.1579)"
         id="g5610">
        <path
           inkscape:connector-curvature="0"
           style="color:#000000;font-style:normal;font-variant:normal;font-weight:normal;font-stretch:normal;font-size:medium;line-height:normal;font-family:sans-serif;text-indent:0;text-align:start;text-decoration:none;text-decoration-line:none;text-decoration-style:solid;text-decoration-color:#000000;letter-spacing:normal;word-spacing:normal;text-transform:none;writing-mode:lr-tb;direction:ltr;baseline-shift:baseline;text-anchor:start;white-space:normal;clip-rule:nonzero;display:inline;overflow:visible;visibility:visible;opacity:1;isolation:auto;mix-blend-mode:normal;color-interpolation:sRGB;color-interpolation-filters:linearRGB;solid-color:#000000;solid-opacity:1;fill:#676767;fill-opacity:0.31372549;fill-rule:evenodd;stroke:none;stroke-width:5.625;stroke-linecap:round;stroke-linejoin:round;stroke-miterlimit:0;stroke-dasharray:none;stroke-dashoffset:0;stroke-opacity:1;color-rendering:auto;image-rendering:auto;shape-rendering:auto;text-rendering:auto;enable-background:accumulate"
           d="m 1523.7024,2736.3293 v 0 l -5.9494,5.9495 a 2.8127813,2.8127813 0 0 0 0,3.9774 l 85.7682,85.7683 -55.9967,15.994 a 2.8127813,2.8127813 0 0 0 -1.2157,4.6934 l 59.1403,59.1403 -15.3985,15.3986 a 2.8127813,2.8127813 0 0 0 0,3.9774 l 25.8653,25.8653 -7.999,7.9989 -53.7166,-53.7166 a 2.8127813,2.8127813 0 0 0 -3.9775,0 l -25.5843,25.5843 a 2.8127813,2.8127813 0 0 0 0,3.9775 l 53.7166,53.7166 -7.9976,7.9977 -53.7167,-53.7166 a 2.8127813,2.8127813 0 0 0 -3.9774,0 l -25.5856,25.5855 a 2.8127813,2.8127813 0 0 0 0,3.9775 l 25.8627,25.8626 -21.4878,21.4878 a 2.8127813,2.8127813 0 0 0 0,3.9774 l 6.8052,6.8052 a 2.8127813,2.8127813 0 0 0 3.9775,0 l 30.2817,-30.2817 a 2.8127813,2.8127813 0 0 0 0,-3.9774 l -25.8639,-25.864 7.9976,-7.9975 53.7166,53.7166 a 2.8127813,2.8127813 0 0 0 3.9775,0 l 25.5856,-25.5856 a 2.8127813,2.8127813 0 0 0 0,-3.9775 l -53.7167,-53.7166 7.9964,-7.9964 53.7167,53.7166 a 2.8127813,2.8127813 0 0 0 3.9774,0 l 25.5844,-25.5843 a 2.8127813,2.8127813 0 0 0 0,-3.9775 l -25.864,-25.864 6.6071,-6.6071 59.1534,59.1534 a 2.8127813,2.8127813 0 0 0 4.6946,-1.2196 l 1.9512,-6.8765 46.7367,-163.6008 13.6337,-13.6338 a 2.8127813,2.8127813 0 0 0 0.3043,-3.6136 l -2.3409,-3.3094 c -5.0742,-7.1711 -9.4095,-13.6223 -13.1133,-19.4058 1.4918,0.9664 2.6103,1.5864 4.2131,2.6594 9.6894,6.487 21.0881,14.6321 31.122,21.3648 5.0756,3.4058 9.5068,6.1552 13.3488,8.2009 3.7745,2.0097 6.9912,3.5614 10.7556,3.9736 1.9087,0.2088 4.8502,0.1208 7.4746,-1.845 2.858,-2.1409 3.7682,-5.3333 3.747,-7.9085 -0.035,-4.2596 -1.7829,-7.5797 -3.9969,-11.5581 -4.4646,-8.023 -11.9786,-18.7323 -19.4679,-29.4737 -5.0104,-7.1862 -9.56,-13.8988 -13.4344,-19.877 1.5163,0.9605 2.5635,1.484 4.2714,2.6296 9.7336,6.5288 21.1251,14.6658 31.1168,21.3543 4.995,3.3438 9.6374,6.3315 13.6932,8.6334 3.9438,2.2383 7.2202,4.1609 11.4832,4.6494 2.7861,0.3193 6.5998,-0.3851 8.974,-3.7689 2.0971,-2.989 1.7911,-6.2303 1.4708,-7.9783 -0.6875,-3.7507 -2.4079,-7.0467 -4.5756,-10.9303 -3.6468,-6.533 -9.241,-14.7774 -15.3402,-23.5023 l 5.9442,-5.9442 a 2.8127813,2.8127813 0 0 0 0,-3.9775 l -6.8052,-6.8052 a 2.8127813,2.8127813 0 0 0 -3.9775,0 l -13.3009,13.301 a 2.8127813,2.8127813 0 0 0 -0.307,3.6137 l 2.3422,3.3132 c 5.0681,7.1631 9.4051,13.6119 13.1107,19.3953 -1.4967,-0.9692 -2.622,-1.5921 -4.23,-2.6684 -9.6878,-6.4851 -21.0809,-14.6251 -31.1077,-21.3505 -5.0711,-3.4014 -9.4964,-6.15 -13.3398,-8.197 -3.7761,-2.0113 -6.9982,-3.5639 -10.7594,-3.9801 -1.9022,-0.2105 -4.8432,-0.1315 -7.472,1.8295 -2.8663,2.1382 -3.7826,5.337 -3.7612,7.92 0.035,4.2647 1.7882,7.588 4.0085,11.5726 4.4759,8.0318 11.9999,18.7458 19.4886,29.4865 5.0098,7.1855 9.5526,13.8943 13.4201,19.8653 -1.5197,-0.9629 -2.5661,-1.4879 -4.2791,-2.6373 -9.7412,-6.5363 -21.1407,-14.6815 -31.1349,-21.3725 -4.9959,-3.3447 -9.6366,-6.3315 -13.692,-8.6321 -3.9387,-2.2343 -7.2113,-4.1636 -11.4948,-4.6378 -2.8048,-0.3103 -6.6064,0.4255 -8.9598,3.817 -2.0715,2.9857 -1.7645,6.2091 -1.4436,7.9536 0.6894,3.7469 2.41,7.0411 4.5756,10.9225 3.6432,6.5287 9.2291,14.77 15.3274,23.4946 l -6.2834,6.2834 -99.0187,28.289 -91.2787,-91.2787 a 2.8127813,2.8127813 0 0 0 -3.9775,0 z"
           id="path5602" />
        <path
           id="path5604"
           d="m 1509.6399,2722.267 v 0 l -5.9494,5.9494 a 2.8127813,2.8127813 0 0 0 0,3.9775 l 85.7681,85.7682 -55.9966,15.994 a 2.8127813,2.8127813 0 0 0 -1.2157,4.6934 l 59.1403,59.1403 -15.3986,15.3985 a 2.8127813,2.8127813 0 0 0 0,3.9775 l 25.8653,25.8653 -7.9989,7.9989 -53.7167,-53.7166 a 2.8127813,2.8127813 0 0 0 -3.9774,0 l -25.5844,25.5843 a 2.8127813,2.8127813 0 0 0 0,3.9775 l 53.7167,53.7166 -7.9977,7.9977 -53.7166,-53.7167 a 2.8127813,2.8127813 0 0 0 -3.9775,0 l -25.5855,25.5856 a 2.8127813,2.8127813 0 0 0 0,3.9774 l 25.8626,25.8627 -21.4877,21.4877 a 2.8127813,2.8127813 0 0 0 0,3.9774 l 6.8052,6.8052 a 2.8127813,2.8127813 0 0 0 3.9775,0 l 30.2816,-30.2816 a 2.8127813,2.8127813 0 0 0 0,-3.9775 l -25.8639,-25.8639 7.9976,-7.9976 53.7167,53.7167 a 2.8127813,2.8127813 0 0 0 3.9775,0 l 25.5856,-25.5856 a 2.8127813,2.8127813 0 0 0 0,-3.9774 l -53.7167,-53.7167 7.9964,-7.9964 53.7167,53.7167 a 2.8127813,2.8127813 0 0 0 3.9774,0 l 25.5844,-25.5844 a 2.8127813,2.8127813 0 0 0 0,-3.9774 l -25.8641,-25.8641 6.6071,-6.6071 59.1534,59.1534 a 2.8127813,2.8127813 0 0 0 4.6948,-1.2197 l 1.9511,-6.8764 46.7366,-163.6009 13.6338,-13.6337 a 2.8127813,2.8127813 0 0 0 0.3042,-3.6137 l -2.3408,-3.3094 c -5.0743,-7.171 -9.4095,-13.6222 -13.1133,-19.4057 1.4918,0.9665 2.6104,1.5864 4.2131,2.6595 9.6894,6.4869 21.0881,14.632 31.1219,21.3646 5.0757,3.406 9.5069,6.1553 13.3489,8.2009 3.7745,2.0098 6.9912,3.5616 10.7555,3.9737 1.9088,0.2089 4.8503,0.1208 7.4746,-1.8451 2.858,-2.1408 3.7682,-5.3333 3.7471,-7.9083 -0.035,-4.2597 -1.7829,-7.5798 -3.9969,-11.5582 -4.4646,-8.023 -11.9786,-18.7324 -19.4679,-29.4738 -5.0105,-7.1861 -9.56,-13.8987 -13.4345,-19.8769 1.5164,0.9606 2.5636,1.4839 4.2715,2.6296 9.7336,6.5289 21.1251,14.6658 31.1168,21.3544 4.995,3.3437 9.6373,6.3313 13.6932,8.6333 3.9438,2.2383 7.2202,4.1609 11.4832,4.6495 2.786,0.3191 6.5997,-0.3853 8.9739,-3.7691 2.0972,-2.9888 1.7912,-6.2302 1.4709,-7.9782 -0.6876,-3.7508 -2.4079,-7.0467 -4.5756,-10.9304 -3.6469,-6.5329 -9.241,-14.7773 -15.3403,-23.5022 l 5.9442,-5.9442 a 2.8127813,2.8127813 0 0 0 0,-3.9775 l -6.8052,-6.8052 a 2.8127813,2.8127813 0 0 0 -3.9775,0 l -13.3009,13.301 a 2.8127813,2.8127813 0 0 0 -0.307,3.6136 l 2.3423,3.3132 c 5.0681,7.1631 9.4051,13.6121 13.1107,19.3954 -1.4967,-0.9692 -2.6221,-1.5921 -4.23,-2.6684 -9.6877,-6.4851 -21.0809,-14.625 -31.1077,-21.3504 -5.0711,-3.4014 -9.4964,-6.15 -13.3399,-8.1972 -3.7759,-2.0113 -6.9982,-3.5638 -10.7593,-3.98 -1.9022,-0.2105 -4.8432,-0.1314 -7.4721,1.8295 -2.8662,2.1382 -3.7825,5.337 -3.7612,7.9199 0.035,4.2649 1.7882,7.5881 4.0086,11.5726 4.4759,8.032 11.9998,18.7459 19.4886,29.4866 5.0098,7.1855 9.5526,13.8944 13.4201,19.8654 -1.5198,-0.963 -2.5662,-1.488 -4.2792,-2.6375 -9.7411,-6.5362 -21.1406,-14.6815 -31.1348,-21.3723 -4.996,-3.3448 -9.6367,-6.3317 -13.6921,-8.6322 -3.9386,-2.2344 -7.2112,-4.1636 -11.4948,-4.6378 -2.8047,-0.3103 -6.6064,0.4254 -8.9596,3.8169 -2.0716,2.9858 -1.7646,6.2091 -1.4436,7.9537 0.6893,3.747 2.4099,7.0412 4.5755,10.9226 3.6432,6.5287 9.2291,14.7699 15.3274,23.4944 l -6.2835,6.2835 -99.0187,28.289 -91.2786,-91.2787 a 2.8127813,2.8127813 0 0 0 -3.9775,0 z"
           style="color:#000000;font-style:normal;font-variant:normal;font-weight:normal;font-stretch:normal;font-size:medium;line-height:normal;font-family:sans-serif;text-indent:0;text-align:start;text-decoration:none;text-decoration-line:none;text-decoration-style:solid;text-decoration-color:#000000;letter-spacing:normal;word-spacing:normal;text-transform:none;writing-mode:lr-tb;direction:ltr;baseline-shift:baseline;text-anchor:start;white-space:normal;clip-rule:nonzero;display:inline;overflow:visible;visibility:visible;opacity:1;isolation:auto;mix-blend-mode:normal;color-interpolation:sRGB;color-interpolation-filters:linearRGB;solid-color:#000000;solid-opacity:1;fill:#fafafa;fill-opacity:1;fill-rule:evenodd;stroke:none;stroke-width:5.625;stroke-linecap:round;stroke-linejoin:round;stroke-miterlimit:0;stroke-dasharray:none;stroke-dashoffset:0;stroke-opacity:1;color-rendering:auto;image-rendering:auto;shape-rendering:auto;text-rendering:auto;enable-background:accumulate"
           inkscape:connector-curvature="0" />
      </g>
    </g>
  </g>
</svg>
